<svg id="Слой_1" data-name="Слой 1" xmlns="http://www.w3.org/2000/svg" viewBox="0 0 53.62 43.58"><defs><style>.cls-1{fill:#ffffff;}.cls-2{fill:#fcb94d;fill-rule:evenodd;}</style></defs><title>logo_100x100</title><path class="cls-1" d="M24.2,66.61H26a1.55,1.55,0,0,0,.43,1,2,2,0,0,0,1.51.46q1.92,0,1.92-1.19a.76.76,0,0,0-.39-.71,5.3,5.3,0,0,0-1.27-.43l-1-.23a10.85,10.85,0,0,1-1.56-.46,2.21,2.21,0,0,1-1-.76,2.44,2.44,0,0,1-.39-1.47,3,3,0,0,1,.29-1.27,2.49,2.49,0,0,1,1.08-1.09A4.3,4.3,0,0,1,27.87,60a4.52,4.52,0,0,1,1.7.28,3,3,0,0,1,1.11.74,2.87,2.87,0,0,1,.59,1,3.08,3.08,0,0,1,.18,1H29.6a2.14,2.14,0,0,0-.17-.61,1.25,1.25,0,0,0-.54-.53,2.35,2.35,0,0,0-1.17-.24,2.27,2.27,0,0,0-1.12.26.89.89,0,0,0-.48.84.76.76,0,0,0,.27.66,2.11,2.11,0,0,0,.7.3l2.23.55a4.31,4.31,0,0,1,1.77.81,2,2,0,0,1,.63,1.66,2.77,2.77,0,0,1-.42,1.58,2.67,2.67,0,0,1-1,.92,4.26,4.26,0,0,1-1.17.41,6,6,0,0,1-1,.1,5.61,5.61,0,0,1-2-.3,3,3,0,0,1-1.21-.76,2.69,2.69,0,0,1-.58-1,3.37,3.37,0,0,1-.16-1Zm10.72-.42a2.38,2.38,0,0,0,.39,1.39,1.34,1.34,0,0,0,1.18.56,1.18,1.18,0,0,0,.86-.32,1.84,1.84,0,0,0,.47-.79,3.4,3.4,0,0,0,.14-.94,2.81,2.81,0,0,0-.36-1.49A1.25,1.25,0,0,0,36.44,64q-1.52,0-1.52,2.19Zm0-3.55v1h0a2.82,2.82,0,0,1,.78-.84A2.14,2.14,0,0,1,37,62.46a2.66,2.66,0,0,1,1.08.22,2.53,2.53,0,0,1,.9.66,3.08,3.08,0,0,1,.62,1.1A4.8,4.8,0,0,1,39.8,66a5.22,5.22,0,0,1-.31,1.81,2.93,2.93,0,0,1-1,1.34,2.53,2.53,0,0,1-1.6.5,2.06,2.06,0,0,1-1.92-1h0v3.51H33.21V62.64ZM47.8,66a4.11,4.11,0,0,1-.28,1.57,3.06,3.06,0,0,1-.76,1.13,3.16,3.16,0,0,1-1.11.67,4,4,0,0,1-1.33.22,3.88,3.88,0,0,1-1.74-.39A3,3,0,0,1,41.33,68a3.83,3.83,0,0,1-.47-2,4.14,4.14,0,0,1,.28-1.57,3.07,3.07,0,0,1,.76-1.12A3.16,3.16,0,0,1,43,62.68a4.14,4.14,0,0,1,2.66,0,3.14,3.14,0,0,1,1.11.66,3,3,0,0,1,.76,1.13A4.13,4.13,0,0,1,47.8,66ZM46,66a2.87,2.87,0,0,0-.36-1.46,1.64,1.64,0,0,0-2.56,0,3.14,3.14,0,0,0,0,2.91,1.64,1.64,0,0,0,2.56,0A2.87,2.87,0,0,0,46,66Zm5.29-5.24v1.84h1.31v1.28H51.25v3.69a1.08,1.08,0,0,0,0,.34.27.27,0,0,0,.19.16,1.68,1.68,0,0,0,.51.05l.37,0v1.35l-.84,0h-.23a2.92,2.92,0,0,1-1.14-.18,1,1,0,0,1-.55-.49,1.91,1.91,0,0,1-.14-.8V63.92h-1V62.64h1V60.8Zm4.28-.54v9.17H53.74V60.26Zm5.9,7.18h1.84a2.74,2.74,0,0,1-1.16,1.65,3.38,3.38,0,0,1-1.83.52,4.47,4.47,0,0,1-1.36-.2,2.72,2.72,0,0,1-1.07-.63,2.84,2.84,0,0,1-.71-1.16,5.29,5.29,0,0,1-.25-1.73,5,5,0,0,1,.11-1,3.7,3.7,0,0,1,.44-1.12,2.67,2.67,0,0,1,1-1,3.36,3.36,0,0,1,1.71-.39,4,4,0,0,1,1.12.16,2.79,2.79,0,0,1,1,.57,2.88,2.88,0,0,1,.76,1.16,5.1,5.1,0,0,1,.29,1.85v.32H58.69a3.62,3.62,0,0,0,.14.76,1.29,1.29,0,0,0,.45.62,1.55,1.55,0,0,0,1,.28A1.35,1.35,0,0,0,61,68a.9.9,0,0,0,.43-.54Zm-2.69-2.08h2.77A1.56,1.56,0,0,0,61,64.27a1.38,1.38,0,0,0-.91-.34c-.82,0-1.28.48-1.39,1.43Zm11.58-.65H68.57a1.17,1.17,0,0,0-.31-.66,1.27,1.27,0,0,0-.89-.24q-1.1,0-1.1.66,0,.34.73.53l1.55.37a3.72,3.72,0,0,1,1.4.62,1.49,1.49,0,0,1,.58,1.28A2,2,0,0,1,70,68.71a2.48,2.48,0,0,1-1.16.71,4.91,4.91,0,0,1-1.33.19,4.48,4.48,0,0,1-2.29-.55,2,2,0,0,1-1-1.8h1.84q0,1,1.48,1a1.37,1.37,0,0,0,.88-.22.64.64,0,0,0,.26-.48c0-.25-.25-.43-.76-.56l-1.54-.37a3.58,3.58,0,0,1-1.35-.6,1.5,1.5,0,0,1-.57-1.28,2.38,2.38,0,0,1,.26-1.07,2.06,2.06,0,0,1,.88-.86,3.29,3.29,0,0,1,1.61-.34q2.89,0,3.05,2.25Zm7.29,0H75.87a1.19,1.19,0,0,0-.31-.66,1.27,1.27,0,0,0-.89-.24q-1.1,0-1.1.66c0,.23.24.4.73.53l1.55.37a3.72,3.72,0,0,1,1.4.62,1.49,1.49,0,0,1,.58,1.28,2,2,0,0,1-.49,1.43,2.48,2.48,0,0,1-1.16.71,4.93,4.93,0,0,1-1.33.19,4.48,4.48,0,0,1-2.29-.55,2,2,0,0,1-1-1.8h1.84q0,1,1.48,1a1.37,1.37,0,0,0,.88-.22.64.64,0,0,0,.26-.48c0-.25-.25-.43-.75-.56l-1.54-.37a3.57,3.57,0,0,1-1.35-.6,1.5,1.5,0,0,1-.57-1.28,2.37,2.37,0,0,1,.26-1.07A2,2,0,0,1,73,62.8a3.3,3.3,0,0,1,1.61-.34q2.89,0,3.05,2.25Z" transform="translate(-24.2 -28.5)"/><path class="cls-2" d="M57.33,35l4.3-4.3L72.3,41.4,68,45.7,57.33,35Zm-27.8,6.3,4.3-4.3L44.5,47.7,40.21,52,29.53,41.32Zm8.53-8.53,4.3-4.3L63.78,49.92l-4.3,4.3L38.06,32.8Z" transform="translate(-24.2 -28.5)"/>
</svg>